<?xml version="1.0" encoding="UTF-8" standalone="no"?>
<!-- Created with Inkscape (http://www.inkscape.org/) -->

<svg
   xmlns:dc="http://purl.org/dc/elements/1.1/"
   xmlns:cc="http://creativecommons.org/ns#"
   xmlns:rdf="http://www.w3.org/1999/02/22-rdf-syntax-ns#"
   xmlns:svg="http://www.w3.org/2000/svg"
   xmlns="http://www.w3.org/2000/svg"
   xmlns:sodipodi="http://sodipodi.sourceforge.net/DTD/sodipodi-0.dtd"
   xmlns:inkscape="http://www.inkscape.org/namespaces/inkscape"
   width="512"
   height="512"
   viewBox="0 0 511.99999 511.99999"
   id="svg2"
   version="1.1"
   inkscape:version="0.91 r13725"
   sodipodi:docname="forcefield.svg">
  <sodipodi:namedview
     id="base"
     pagecolor="#ffffff"
     bordercolor="#666666"
     borderopacity="1.0"
     inkscape:pageopacity="0.0"
     inkscape:pageshadow="2"
     inkscape:zoom="1.5273438"
     inkscape:cx="256"
     inkscape:cy="256"
     inkscape:document-units="px"
     inkscape:current-layer="g4209"
     showgrid="true"
     units="px"
     inkscape:snap-bbox="true"
     inkscape:snap-intersection-paths="true"
     inkscape:object-nodes="true"
     inkscape:snap-smooth-nodes="true"
     inkscape:object-paths="true"
     inkscape:window-width="1920"
     inkscape:window-height="1005"
     inkscape:window-x="-9"
     inkscape:window-y="-9"
     inkscape:window-maximized="1">
    <inkscape:grid
       spacingy="3.9999999"
       spacingx="3.9999999"
       empspacing="4"
       id="grid4136"
       type="xygrid" />
  </sodipodi:namedview>
  <defs
     id="defs4" />
  <metadata
     id="metadata7">
    <rdf:RDF>
      <cc:Work
         rdf:about="">
        <dc:format>image/svg+xml</dc:format>
        <dc:type
           rdf:resource="http://purl.org/dc/dcmitype/StillImage" />
        <dc:title></dc:title>
      </cc:Work>
    </rdf:RDF>
  </metadata>
  <g
     transform="translate(0,-540.36219)"
     id="layer1"
     inkscape:groupmode="layer"
     inkscape:label="Layer 1">
    <g
       id="g4209"
       transform="matrix(1.0666666,0,0,1,-17.066666,0)">
      <path
         style="fill:none;fill-rule:evenodd;stroke:#ffcc00;stroke-width:15.49193382;stroke-linecap:round;stroke-linejoin:round;stroke-miterlimit:4;stroke-dasharray:none;stroke-opacity:1"
         d="m 16,652.36219 c 0,0 128,-96 240,-96 112,0 240,96 240,96"
         id="path4138"
         inkscape:connector-curvature="0"
         sodipodi:nodetypes="czc" />
      <path
         sodipodi:nodetypes="czc"
         inkscape:connector-curvature="0"
         id="path4140"
         d="m 16,940.36219 c 0,0 128,96.00001 240,96.00001 112,0 240,-96.00001 240,-96.00001"
         style="fill:none;fill-rule:evenodd;stroke:#ffcc00;stroke-width:15.49193382;stroke-linecap:round;stroke-linejoin:round;stroke-miterlimit:4;stroke-dasharray:none;stroke-opacity:1" />
      <g
         style="stroke:#ffcc00;stroke-width:0.96824586;stroke-opacity:1"
         id="g4150">
        <g
           id="g4200"
           style="stroke-width:0.96824586">
          <path
             id="path4152"
             d="m 16,652.36219 c 0,0 128,-96 240,-96 0,0 0,0 0,0 112,0 240,96 240,96"
             style="fill:none;fill-rule:evenodd;stroke:#ffcc00;stroke-width:15.49193382;stroke-linecap:round;stroke-linejoin:round;stroke-miterlimit:4;stroke-dasharray:none;stroke-opacity:1"
             inkscape:connector-curvature="0" />
          <path
             id="path4154"
             d="m 16,700.36219 c 0,0 128,-64 240,-64 4e-5,0 7e-5,0 1.1e-4,0 111.99997,-6e-5 239.99989,64 239.99989,64"
             style="fill:none;fill-rule:evenodd;stroke:#ffcc00;stroke-width:15.49193382;stroke-linecap:round;stroke-linejoin:round;stroke-miterlimit:4;stroke-dasharray:none;stroke-opacity:1"
             inkscape:connector-curvature="0" />
          <path
             id="path4156"
             d="m 16,748.36219 c 0,0 128,-32 240,-32 7e-5,0 1.4e-4,0 2.1e-4,0 111.99995,-1.2e-4 239.99979,32 239.99979,32"
             style="fill:none;fill-rule:evenodd;stroke:#ffcc00;stroke-width:15.49193382;stroke-linecap:round;stroke-linejoin:round;stroke-miterlimit:4;stroke-dasharray:none;stroke-opacity:1"
             inkscape:connector-curvature="0" />
          <path
             id="path4158"
             d="m 16,796.36219 c 0,0 128,10e-6 240,10e-6 1.1e-4,0 2.1e-4,0 3.2e-4,-10e-6 111.99992,-1.8e-4 239.99968,0 239.99968,0"
             style="fill:none;fill-rule:evenodd;stroke:#ffcc00;stroke-width:15.49193382;stroke-linecap:round;stroke-linejoin:round;stroke-miterlimit:4;stroke-dasharray:none;stroke-opacity:1"
             inkscape:connector-curvature="0" />
          <path
             id="path4160"
             d="m 16,844.36219 c 0,0 128,32.00001 240,32.00001 1.4e-4,0 2.8e-4,0 4.3e-4,0 C 368.00033,876.36195 496,844.36219 496,844.36219"
             style="fill:none;fill-rule:evenodd;stroke:#ffcc00;stroke-width:15.49193382;stroke-linecap:round;stroke-linejoin:round;stroke-miterlimit:4;stroke-dasharray:none;stroke-opacity:1"
             inkscape:connector-curvature="0" />
          <path
             id="path4162"
             d="m 16,892.36219 c 0,0 128,64.00001 240,64.00001 1.8e-4,0 3.6e-4,0 5.3e-4,0 C 368.00041,956.36189 496,892.36219 496,892.36219"
             style="fill:none;fill-rule:evenodd;stroke:#ffcc00;stroke-width:15.49193382;stroke-linecap:round;stroke-linejoin:round;stroke-miterlimit:4;stroke-dasharray:none;stroke-opacity:1"
             inkscape:connector-curvature="0" />
          <path
             id="path4164"
             d="m 16,940.36219 c 0,0 128,96.00001 240,96.00001 2.1e-4,0 4.3e-4,0 6.4e-4,0 C 368.00049,1036.3618 496,940.36219 496,940.36219"
             style="fill:none;fill-rule:evenodd;stroke:#ffcc00;stroke-width:15.49193382;stroke-linecap:round;stroke-linejoin:round;stroke-miterlimit:4;stroke-dasharray:none;stroke-opacity:1"
             inkscape:connector-curvature="0" />
        </g>
      </g>
      <path
         inkscape:connector-curvature="0"
         id="path4182"
         d="m 256,556.36219 0,480.00001"
         style="fill:none;fill-rule:evenodd;stroke:#ffcc00;stroke-width:15.49193382;stroke-linecap:round;stroke-linejoin:round;stroke-miterlimit:4;stroke-dasharray:none;stroke-opacity:1" />
      <path
         inkscape:connector-curvature="0"
         id="path4184"
         d="m 176,572.36219 0,448.00001"
         style="fill:none;fill-rule:evenodd;stroke:#ffcc00;stroke-width:15.49193382;stroke-linecap:round;stroke-linejoin:round;stroke-miterlimit:4;stroke-dasharray:none;stroke-opacity:1" />
      <path
         sodipodi:nodetypes="cc"
         inkscape:connector-curvature="0"
         id="path4186"
         d="m 112,596.36219 0,400"
         style="fill:none;fill-rule:evenodd;stroke:#ffcc00;stroke-width:15.49193382;stroke-linecap:round;stroke-linejoin:round;stroke-miterlimit:4;stroke-dasharray:none;stroke-opacity:1" />
      <path
         sodipodi:nodetypes="cc"
         inkscape:connector-curvature="0"
         id="path4188"
         d="m 61.000003,628.36219 0,336"
         style="fill:none;fill-rule:evenodd;stroke:#ffcc00;stroke-width:15.49193382;stroke-linecap:round;stroke-linejoin:round;stroke-miterlimit:4;stroke-dasharray:none;stroke-opacity:1" />
      <path
         style="fill:none;fill-rule:evenodd;stroke:#ffcc00;stroke-width:15.49193382;stroke-linecap:round;stroke-linejoin:round;stroke-miterlimit:4;stroke-dasharray:none;stroke-opacity:1"
         d="m 176,572.36219 0,448.00001"
         id="path4190"
         inkscape:connector-curvature="0" />
      <path
         style="fill:none;fill-rule:evenodd;stroke:#ffcc00;stroke-width:15.49193382;stroke-linecap:round;stroke-linejoin:round;stroke-miterlimit:4;stroke-dasharray:none;stroke-opacity:1"
         d="m 400,596.36219 0,400.00001"
         id="path4194"
         inkscape:connector-curvature="0"
         sodipodi:nodetypes="cc" />
      <path
         style="fill:none;fill-rule:evenodd;stroke:#ffcc00;stroke-width:15.49193382;stroke-linecap:round;stroke-linejoin:round;stroke-miterlimit:4;stroke-dasharray:none;stroke-opacity:1"
         d="m 451.00003,628.36219 0,336"
         id="path4196"
         inkscape:connector-curvature="0"
         sodipodi:nodetypes="cc" />
      <path
         inkscape:connector-curvature="0"
         id="path4198"
         d="m 336,572.36219 0,448.00001"
         style="fill:none;fill-rule:evenodd;stroke:#ffcc00;stroke-width:15.49193382;stroke-linecap:round;stroke-linejoin:round;stroke-miterlimit:4;stroke-dasharray:none;stroke-opacity:1" />
    </g>
  </g>
</svg>
